G04 #@! TF.FileFunction,Copper,L2,Inr,Plane*
%FSLAX46Y46*%
G04 Gerber Fmt 4.6, Leading zero omitted, Abs format (unit mm)*
G04 Created by KiCad (PCBNEW 4.0.7) date Wednesday, October 18, 2017 'PMt' 08:17:54 PM*
%MOMM*%
%LPD*%
G01*
G04 APERTURE LIST*
%ADD10C,0.150000*%
%ADD11C,4.400000*%
%ADD12C,1.450000*%
%ADD13C,1.899920*%
%ADD14C,0.609600*%
%ADD15C,0.127000*%
G04 APERTURE END LIST*
D10*
D11*
X133350000Y-116586000D03*
D12*
X131655663Y-86451407D03*
X131655663Y-81451407D03*
D13*
X134355663Y-87451407D03*
X134355663Y-80451407D03*
D11*
X133223000Y-76327000D03*
D14*
X127263367Y-88884834D03*
X127263367Y-87595849D03*
X128528915Y-87619285D03*
X128528915Y-88849680D03*
X129862490Y-85794952D03*
X135001000Y-99060000D03*
X126873000Y-99187000D03*
X126858953Y-100827831D03*
X124523511Y-94419812D03*
X124523511Y-90402000D03*
X135091000Y-89386000D03*
X135091000Y-92986000D03*
X133350000Y-94754700D03*
X130278000Y-91694000D03*
X133985000Y-105029000D03*
X126873000Y-108839000D03*
X124968000Y-97802000D03*
X126873000Y-97687000D03*
X128844000Y-104466000D03*
X128143000Y-109728000D03*
X128905000Y-109220000D03*
X128905000Y-109752000D03*
X132001000Y-107569000D03*
X125448985Y-104757519D03*
X132984063Y-84514607D03*
X132984063Y-82990607D03*
X135128000Y-107569000D03*
X128294000Y-95250000D03*
X126492000Y-106299000D03*
X128778000Y-91694000D03*
X127381000Y-91694000D03*
X125095000Y-82677000D03*
X126858953Y-103447831D03*
X125448985Y-106657519D03*
X126619000Y-92748100D03*
X130644528Y-87013368D03*
X125296101Y-88224195D03*
X124311738Y-86351516D03*
X125881000Y-91694000D03*
X124492261Y-88281444D03*
X124611997Y-87411050D03*
X131374011Y-92969426D03*
X124333000Y-96647000D03*
X125984000Y-96901000D03*
X132106450Y-90682583D03*
X132606626Y-89281000D03*
D15*
G36*
X135649500Y-113855500D02*
X130497783Y-113855500D01*
X130394821Y-113786703D01*
X130394820Y-113786702D01*
X130344036Y-113765667D01*
X130308126Y-113750792D01*
X130308125Y-113750792D01*
X129967919Y-113683121D01*
X129944717Y-113683121D01*
X129921982Y-113678502D01*
X124015500Y-113654394D01*
X124015500Y-107667089D01*
X134632614Y-107667089D01*
X134707860Y-107849199D01*
X134847068Y-107988650D01*
X135029046Y-108064214D01*
X135226089Y-108064386D01*
X135408199Y-107989140D01*
X135547650Y-107849932D01*
X135623214Y-107667954D01*
X135623386Y-107470911D01*
X135548140Y-107288801D01*
X135408932Y-107149350D01*
X135226954Y-107073786D01*
X135029911Y-107073614D01*
X134847801Y-107148860D01*
X134708350Y-107288068D01*
X134632786Y-107470046D01*
X134632614Y-107667089D01*
X124015500Y-107667089D01*
X124015500Y-106755608D01*
X124953599Y-106755608D01*
X125028845Y-106937718D01*
X125168053Y-107077169D01*
X125350031Y-107152733D01*
X125547074Y-107152905D01*
X125729184Y-107077659D01*
X125868635Y-106938451D01*
X125944199Y-106756473D01*
X125944371Y-106559430D01*
X125877294Y-106397089D01*
X125996614Y-106397089D01*
X126071860Y-106579199D01*
X126211068Y-106718650D01*
X126393046Y-106794214D01*
X126590089Y-106794386D01*
X126772199Y-106719140D01*
X126911650Y-106579932D01*
X126987214Y-106397954D01*
X126987386Y-106200911D01*
X126912140Y-106018801D01*
X126772932Y-105879350D01*
X126590954Y-105803786D01*
X126393911Y-105803614D01*
X126211801Y-105878860D01*
X126072350Y-106018068D01*
X125996786Y-106200046D01*
X125996614Y-106397089D01*
X125877294Y-106397089D01*
X125869125Y-106377320D01*
X125729917Y-106237869D01*
X125547939Y-106162305D01*
X125350896Y-106162133D01*
X125168786Y-106237379D01*
X125029335Y-106376587D01*
X124953771Y-106558565D01*
X124953599Y-106755608D01*
X124015500Y-106755608D01*
X124015500Y-100925920D01*
X126363567Y-100925920D01*
X126438813Y-101108030D01*
X126578021Y-101247481D01*
X126759999Y-101323045D01*
X126957042Y-101323217D01*
X127139152Y-101247971D01*
X127241300Y-101146001D01*
X127241300Y-103129773D01*
X127139885Y-103028181D01*
X126957907Y-102952617D01*
X126760864Y-102952445D01*
X126578754Y-103027691D01*
X126439303Y-103166899D01*
X126363739Y-103348877D01*
X126363567Y-103545920D01*
X126438813Y-103728030D01*
X126578021Y-103867481D01*
X126759999Y-103943045D01*
X126957042Y-103943217D01*
X127139152Y-103867971D01*
X127278603Y-103728763D01*
X127354167Y-103546785D01*
X127354339Y-103349742D01*
X127350272Y-103339900D01*
X129082800Y-103339900D01*
X129105880Y-103335557D01*
X129127077Y-103321917D01*
X129141297Y-103301105D01*
X129146300Y-103276400D01*
X129146300Y-102019100D01*
X131813300Y-102019100D01*
X131813300Y-103276400D01*
X131817643Y-103299480D01*
X131831283Y-103320677D01*
X131852095Y-103334897D01*
X131876800Y-103339900D01*
X133705600Y-103339900D01*
X133728680Y-103335557D01*
X133749877Y-103321917D01*
X133764097Y-103301105D01*
X133769100Y-103276400D01*
X133769100Y-99158089D01*
X134505614Y-99158089D01*
X134580860Y-99340199D01*
X134720068Y-99479650D01*
X134902046Y-99555214D01*
X135099089Y-99555386D01*
X135281199Y-99480140D01*
X135420650Y-99340932D01*
X135496214Y-99158954D01*
X135496386Y-98961911D01*
X135421140Y-98779801D01*
X135281932Y-98640350D01*
X135099954Y-98564786D01*
X134902911Y-98564614D01*
X134720801Y-98639860D01*
X134581350Y-98779068D01*
X134505786Y-98961046D01*
X134505614Y-99158089D01*
X133769100Y-99158089D01*
X133769100Y-96774000D01*
X133764757Y-96750920D01*
X133751117Y-96729723D01*
X133730305Y-96715503D01*
X133705600Y-96710500D01*
X131876800Y-96710500D01*
X131853720Y-96714843D01*
X131832523Y-96728483D01*
X131818303Y-96749295D01*
X131813300Y-96774000D01*
X131813300Y-98031300D01*
X129146300Y-98031300D01*
X129146300Y-96723200D01*
X129141957Y-96700120D01*
X129128317Y-96678923D01*
X129107505Y-96664703D01*
X129082800Y-96659700D01*
X127304800Y-96659700D01*
X127281720Y-96664043D01*
X127260523Y-96677683D01*
X127246303Y-96698495D01*
X127241300Y-96723200D01*
X127241300Y-98854871D01*
X127153932Y-98767350D01*
X126971954Y-98691786D01*
X126774911Y-98691614D01*
X126592801Y-98766860D01*
X126453350Y-98906068D01*
X126377786Y-99088046D01*
X126377614Y-99285089D01*
X126452860Y-99467199D01*
X126592068Y-99606650D01*
X126774046Y-99682214D01*
X126971089Y-99682386D01*
X127153199Y-99607140D01*
X127241300Y-99519193D01*
X127241300Y-100509773D01*
X127139885Y-100408181D01*
X126957907Y-100332617D01*
X126760864Y-100332445D01*
X126578754Y-100407691D01*
X126439303Y-100546899D01*
X126363739Y-100728877D01*
X126363567Y-100925920D01*
X124015500Y-100925920D01*
X124015500Y-97030018D01*
X124052068Y-97066650D01*
X124234046Y-97142214D01*
X124431089Y-97142386D01*
X124613199Y-97067140D01*
X124681368Y-96999089D01*
X125488614Y-96999089D01*
X125563860Y-97181199D01*
X125703068Y-97320650D01*
X125885046Y-97396214D01*
X126082089Y-97396386D01*
X126264199Y-97321140D01*
X126403650Y-97181932D01*
X126479214Y-96999954D01*
X126479386Y-96802911D01*
X126404140Y-96620801D01*
X126264932Y-96481350D01*
X126082954Y-96405786D01*
X125885911Y-96405614D01*
X125703801Y-96480860D01*
X125564350Y-96620068D01*
X125488786Y-96802046D01*
X125488614Y-96999089D01*
X124681368Y-96999089D01*
X124752650Y-96927932D01*
X124828214Y-96745954D01*
X124828386Y-96548911D01*
X124753140Y-96366801D01*
X124613932Y-96227350D01*
X124431954Y-96151786D01*
X124234911Y-96151614D01*
X124052801Y-96226860D01*
X124015500Y-96264096D01*
X124015500Y-95348089D01*
X127798614Y-95348089D01*
X127873860Y-95530199D01*
X128013068Y-95669650D01*
X128195046Y-95745214D01*
X128392089Y-95745386D01*
X128574199Y-95670140D01*
X128713650Y-95530932D01*
X128789214Y-95348954D01*
X128789386Y-95151911D01*
X128714140Y-94969801D01*
X128574932Y-94830350D01*
X128392954Y-94754786D01*
X128195911Y-94754614D01*
X128013801Y-94829860D01*
X127874350Y-94969068D01*
X127798786Y-95151046D01*
X127798614Y-95348089D01*
X124015500Y-95348089D01*
X124015500Y-92846189D01*
X126123614Y-92846189D01*
X126198860Y-93028299D01*
X126338068Y-93167750D01*
X126520046Y-93243314D01*
X126717089Y-93243486D01*
X126899199Y-93168240D01*
X127000099Y-93067515D01*
X130878625Y-93067515D01*
X130953871Y-93249625D01*
X131093079Y-93389076D01*
X131275057Y-93464640D01*
X131472100Y-93464812D01*
X131654210Y-93389566D01*
X131793661Y-93250358D01*
X131869225Y-93068380D01*
X131869397Y-92871337D01*
X131794151Y-92689227D01*
X131654943Y-92549776D01*
X131472965Y-92474212D01*
X131275922Y-92474040D01*
X131093812Y-92549286D01*
X130954361Y-92688494D01*
X130878797Y-92870472D01*
X130878625Y-93067515D01*
X127000099Y-93067515D01*
X127038650Y-93029032D01*
X127114214Y-92847054D01*
X127114386Y-92650011D01*
X127039140Y-92467901D01*
X126899932Y-92328450D01*
X126717954Y-92252886D01*
X126520911Y-92252714D01*
X126338801Y-92327960D01*
X126199350Y-92467168D01*
X126123786Y-92649146D01*
X126123614Y-92846189D01*
X124015500Y-92846189D01*
X124015500Y-91792089D01*
X125385614Y-91792089D01*
X125460860Y-91974199D01*
X125600068Y-92113650D01*
X125782046Y-92189214D01*
X125979089Y-92189386D01*
X126161199Y-92114140D01*
X126300650Y-91974932D01*
X126376214Y-91792954D01*
X126376214Y-91792089D01*
X126885614Y-91792089D01*
X126960860Y-91974199D01*
X127100068Y-92113650D01*
X127282046Y-92189214D01*
X127479089Y-92189386D01*
X127661199Y-92114140D01*
X127800650Y-91974932D01*
X127876214Y-91792954D01*
X127876214Y-91792089D01*
X128282614Y-91792089D01*
X128357860Y-91974199D01*
X128497068Y-92113650D01*
X128679046Y-92189214D01*
X128876089Y-92189386D01*
X129058199Y-92114140D01*
X129197650Y-91974932D01*
X129273214Y-91792954D01*
X129273386Y-91595911D01*
X129198140Y-91413801D01*
X129058932Y-91274350D01*
X128876954Y-91198786D01*
X128679911Y-91198614D01*
X128497801Y-91273860D01*
X128358350Y-91413068D01*
X128282786Y-91595046D01*
X128282614Y-91792089D01*
X127876214Y-91792089D01*
X127876386Y-91595911D01*
X127801140Y-91413801D01*
X127661932Y-91274350D01*
X127479954Y-91198786D01*
X127282911Y-91198614D01*
X127100801Y-91273860D01*
X126961350Y-91413068D01*
X126885786Y-91595046D01*
X126885614Y-91792089D01*
X126376214Y-91792089D01*
X126376386Y-91595911D01*
X126301140Y-91413801D01*
X126161932Y-91274350D01*
X125979954Y-91198786D01*
X125782911Y-91198614D01*
X125600801Y-91273860D01*
X125461350Y-91413068D01*
X125385786Y-91595046D01*
X125385614Y-91792089D01*
X124015500Y-91792089D01*
X124015500Y-90780672D01*
X131611064Y-90780672D01*
X131686310Y-90962782D01*
X131825518Y-91102233D01*
X132007496Y-91177797D01*
X132204539Y-91177969D01*
X132386649Y-91102723D01*
X132526100Y-90963515D01*
X132601664Y-90781537D01*
X132601836Y-90584494D01*
X132526590Y-90402384D01*
X132387382Y-90262933D01*
X132205404Y-90187369D01*
X132008361Y-90187197D01*
X131826251Y-90262443D01*
X131686800Y-90401651D01*
X131611236Y-90583629D01*
X131611064Y-90780672D01*
X124015500Y-90780672D01*
X124015500Y-88982923D01*
X126767981Y-88982923D01*
X126843227Y-89165033D01*
X126982435Y-89304484D01*
X127164413Y-89380048D01*
X127361456Y-89380220D01*
X127364193Y-89379089D01*
X132111240Y-89379089D01*
X132186486Y-89561199D01*
X132325694Y-89700650D01*
X132507672Y-89776214D01*
X132704715Y-89776386D01*
X132886825Y-89701140D01*
X133026276Y-89561932D01*
X133101840Y-89379954D01*
X133102012Y-89182911D01*
X133026766Y-89000801D01*
X132887558Y-88861350D01*
X132705580Y-88785786D01*
X132508537Y-88785614D01*
X132326427Y-88860860D01*
X132186976Y-89000068D01*
X132111412Y-89182046D01*
X132111240Y-89379089D01*
X127364193Y-89379089D01*
X127543566Y-89304974D01*
X127683017Y-89165766D01*
X127758581Y-88983788D01*
X127758612Y-88947769D01*
X128033529Y-88947769D01*
X128108775Y-89129879D01*
X128247983Y-89269330D01*
X128429961Y-89344894D01*
X128627004Y-89345066D01*
X128809114Y-89269820D01*
X128948565Y-89130612D01*
X129024129Y-88948634D01*
X129024301Y-88751591D01*
X128949055Y-88569481D01*
X128809847Y-88430030D01*
X128627869Y-88354466D01*
X128430826Y-88354294D01*
X128248716Y-88429540D01*
X128109265Y-88568748D01*
X128033701Y-88750726D01*
X128033529Y-88947769D01*
X127758612Y-88947769D01*
X127758753Y-88786745D01*
X127683507Y-88604635D01*
X127544299Y-88465184D01*
X127362321Y-88389620D01*
X127165278Y-88389448D01*
X126983168Y-88464694D01*
X126843717Y-88603902D01*
X126768153Y-88785880D01*
X126767981Y-88982923D01*
X124015500Y-88982923D01*
X124015500Y-88424609D01*
X124072121Y-88561643D01*
X124211329Y-88701094D01*
X124393307Y-88776658D01*
X124590350Y-88776830D01*
X124772460Y-88701584D01*
X124911911Y-88562376D01*
X124918354Y-88546861D01*
X125015169Y-88643845D01*
X125197147Y-88719409D01*
X125394190Y-88719581D01*
X125576300Y-88644335D01*
X125715751Y-88505127D01*
X125791315Y-88323149D01*
X125791487Y-88126106D01*
X125716241Y-87943996D01*
X125577033Y-87804545D01*
X125395055Y-87728981D01*
X125198012Y-87728809D01*
X125015902Y-87804055D01*
X124876451Y-87943263D01*
X124870008Y-87958778D01*
X124786315Y-87874939D01*
X124892196Y-87831190D01*
X125029687Y-87693938D01*
X126767981Y-87693938D01*
X126843227Y-87876048D01*
X126982435Y-88015499D01*
X127164413Y-88091063D01*
X127361456Y-88091235D01*
X127543566Y-88015989D01*
X127683017Y-87876781D01*
X127749208Y-87717374D01*
X128033529Y-87717374D01*
X128108775Y-87899484D01*
X128247983Y-88038935D01*
X128429961Y-88114499D01*
X128627004Y-88114671D01*
X128809114Y-88039425D01*
X128948565Y-87900217D01*
X129024129Y-87718239D01*
X129024153Y-87689839D01*
X133151494Y-87689839D01*
X133334400Y-88132505D01*
X133672784Y-88471479D01*
X134115130Y-88655158D01*
X134594095Y-88655576D01*
X135036761Y-88472670D01*
X135375735Y-88134286D01*
X135559414Y-87691940D01*
X135559832Y-87212975D01*
X135376926Y-86770309D01*
X135038542Y-86431335D01*
X134596196Y-86247656D01*
X134117231Y-86247238D01*
X133674565Y-86430144D01*
X133335591Y-86768528D01*
X133151912Y-87210874D01*
X133151494Y-87689839D01*
X129024153Y-87689839D01*
X129024301Y-87521196D01*
X128949055Y-87339086D01*
X128809847Y-87199635D01*
X128627869Y-87124071D01*
X128430826Y-87123899D01*
X128248716Y-87199145D01*
X128109265Y-87338353D01*
X128033701Y-87520331D01*
X128033529Y-87717374D01*
X127749208Y-87717374D01*
X127758581Y-87694803D01*
X127758753Y-87497760D01*
X127683507Y-87315650D01*
X127544299Y-87176199D01*
X127388384Y-87111457D01*
X130149142Y-87111457D01*
X130224388Y-87293567D01*
X130363596Y-87433018D01*
X130545574Y-87508582D01*
X130742617Y-87508754D01*
X130924727Y-87433508D01*
X131050412Y-87308042D01*
X131062117Y-87333173D01*
X131444735Y-87493192D01*
X131859465Y-87494610D01*
X132243168Y-87337210D01*
X132249209Y-87333173D01*
X132323675Y-87173300D01*
X131655663Y-86505289D01*
X131641521Y-86519431D01*
X131587639Y-86465549D01*
X131601781Y-86451407D01*
X131709545Y-86451407D01*
X132377556Y-87119419D01*
X132537429Y-87044953D01*
X132697448Y-86662335D01*
X132698866Y-86247605D01*
X132541466Y-85863902D01*
X132537429Y-85857861D01*
X132377556Y-85783395D01*
X131709545Y-86451407D01*
X131601781Y-86451407D01*
X130933770Y-85783395D01*
X130773897Y-85857861D01*
X130613878Y-86240479D01*
X130612929Y-86518040D01*
X130546439Y-86517982D01*
X130364329Y-86593228D01*
X130224878Y-86732436D01*
X130149314Y-86914414D01*
X130149142Y-87111457D01*
X127388384Y-87111457D01*
X127362321Y-87100635D01*
X127165278Y-87100463D01*
X126983168Y-87175709D01*
X126843717Y-87314917D01*
X126768153Y-87496895D01*
X126767981Y-87693938D01*
X125029687Y-87693938D01*
X125031647Y-87691982D01*
X125107211Y-87510004D01*
X125107383Y-87312961D01*
X125032137Y-87130851D01*
X124892929Y-86991400D01*
X124710951Y-86915836D01*
X124513908Y-86915664D01*
X124331798Y-86990910D01*
X124192347Y-87130118D01*
X124116783Y-87312096D01*
X124116611Y-87509139D01*
X124191857Y-87691249D01*
X124317943Y-87817555D01*
X124212062Y-87861304D01*
X124072611Y-88000512D01*
X124015500Y-88138050D01*
X124015500Y-86755833D01*
X124030806Y-86771166D01*
X124212784Y-86846730D01*
X124409827Y-86846902D01*
X124591937Y-86771656D01*
X124731388Y-86632448D01*
X124806952Y-86450470D01*
X124807124Y-86253427D01*
X124731878Y-86071317D01*
X124592670Y-85931866D01*
X124499170Y-85893041D01*
X129367104Y-85893041D01*
X129442350Y-86075151D01*
X129581558Y-86214602D01*
X129763536Y-86290166D01*
X129960579Y-86290338D01*
X130142689Y-86215092D01*
X130282140Y-86075884D01*
X130357704Y-85893906D01*
X130357847Y-85729514D01*
X130987651Y-85729514D01*
X131655663Y-86397525D01*
X132323675Y-85729514D01*
X132249209Y-85569641D01*
X131866591Y-85409622D01*
X131451861Y-85408204D01*
X131068158Y-85565604D01*
X131062117Y-85569641D01*
X130987651Y-85729514D01*
X130357847Y-85729514D01*
X130357876Y-85696863D01*
X130282630Y-85514753D01*
X130143422Y-85375302D01*
X129961444Y-85299738D01*
X129764401Y-85299566D01*
X129582291Y-85374812D01*
X129442840Y-85514020D01*
X129367276Y-85695998D01*
X129367104Y-85893041D01*
X124499170Y-85893041D01*
X124410692Y-85856302D01*
X124213649Y-85856130D01*
X124031539Y-85931376D01*
X124015500Y-85947387D01*
X124015500Y-82775089D01*
X124599614Y-82775089D01*
X124674860Y-82957199D01*
X124814068Y-83096650D01*
X124996046Y-83172214D01*
X125193089Y-83172386D01*
X125375199Y-83097140D01*
X125514650Y-82957932D01*
X125590214Y-82775954D01*
X125590386Y-82578911D01*
X125515140Y-82396801D01*
X125375932Y-82257350D01*
X125193954Y-82181786D01*
X124996911Y-82181614D01*
X124814801Y-82256860D01*
X124675350Y-82396068D01*
X124599786Y-82578046D01*
X124599614Y-82775089D01*
X124015500Y-82775089D01*
X124015500Y-82173300D01*
X130987651Y-82173300D01*
X131062117Y-82333173D01*
X131444735Y-82493192D01*
X131859465Y-82494610D01*
X132243168Y-82337210D01*
X132249209Y-82333173D01*
X132323675Y-82173300D01*
X131655663Y-81505289D01*
X130987651Y-82173300D01*
X124015500Y-82173300D01*
X124015500Y-81655209D01*
X130612460Y-81655209D01*
X130769860Y-82038912D01*
X130773897Y-82044953D01*
X130933770Y-82119419D01*
X131601781Y-81451407D01*
X131709545Y-81451407D01*
X132377556Y-82119419D01*
X132537429Y-82044953D01*
X132697448Y-81662335D01*
X132698565Y-81335585D01*
X133525366Y-81335585D01*
X133627227Y-81518833D01*
X134091162Y-81716340D01*
X134595364Y-81721272D01*
X135063075Y-81532879D01*
X135084099Y-81518833D01*
X135185960Y-81335585D01*
X134355663Y-80505289D01*
X133525366Y-81335585D01*
X132698565Y-81335585D01*
X132698866Y-81247605D01*
X132541466Y-80863902D01*
X132537429Y-80857861D01*
X132377556Y-80783395D01*
X131709545Y-81451407D01*
X131601781Y-81451407D01*
X130933770Y-80783395D01*
X130773897Y-80857861D01*
X130613878Y-81240479D01*
X130612460Y-81655209D01*
X124015500Y-81655209D01*
X124015500Y-80729514D01*
X130987651Y-80729514D01*
X131655663Y-81397525D01*
X132323675Y-80729514D01*
X132305787Y-80691108D01*
X133085798Y-80691108D01*
X133274191Y-81158819D01*
X133288237Y-81179843D01*
X133471485Y-81281704D01*
X134301781Y-80451407D01*
X134409545Y-80451407D01*
X135239841Y-81281704D01*
X135423089Y-81179843D01*
X135620596Y-80715908D01*
X135625528Y-80211706D01*
X135437135Y-79743995D01*
X135423089Y-79722971D01*
X135239841Y-79621110D01*
X134409545Y-80451407D01*
X134301781Y-80451407D01*
X133471485Y-79621110D01*
X133288237Y-79722971D01*
X133090730Y-80186906D01*
X133085798Y-80691108D01*
X132305787Y-80691108D01*
X132249209Y-80569641D01*
X131866591Y-80409622D01*
X131451861Y-80408204D01*
X131068158Y-80565604D01*
X131062117Y-80569641D01*
X130987651Y-80729514D01*
X124015500Y-80729514D01*
X124015500Y-79567229D01*
X133525366Y-79567229D01*
X134355663Y-80397525D01*
X135185960Y-79567229D01*
X135084099Y-79383981D01*
X134620164Y-79186474D01*
X134115962Y-79181542D01*
X133648251Y-79369935D01*
X133627227Y-79383981D01*
X133525366Y-79567229D01*
X124015500Y-79567229D01*
X124015500Y-79107500D01*
X129794000Y-79107500D01*
X129817231Y-79102879D01*
X129840919Y-79102879D01*
X130132524Y-79044875D01*
X130132525Y-79044875D01*
X130219220Y-79008964D01*
X130336649Y-78930500D01*
X135649500Y-78930500D01*
X135649500Y-113855500D01*
X135649500Y-113855500D01*
G37*
X135649500Y-113855500D02*
X130497783Y-113855500D01*
X130394821Y-113786703D01*
X130394820Y-113786702D01*
X130344036Y-113765667D01*
X130308126Y-113750792D01*
X130308125Y-113750792D01*
X129967919Y-113683121D01*
X129944717Y-113683121D01*
X129921982Y-113678502D01*
X124015500Y-113654394D01*
X124015500Y-107667089D01*
X134632614Y-107667089D01*
X134707860Y-107849199D01*
X134847068Y-107988650D01*
X135029046Y-108064214D01*
X135226089Y-108064386D01*
X135408199Y-107989140D01*
X135547650Y-107849932D01*
X135623214Y-107667954D01*
X135623386Y-107470911D01*
X135548140Y-107288801D01*
X135408932Y-107149350D01*
X135226954Y-107073786D01*
X135029911Y-107073614D01*
X134847801Y-107148860D01*
X134708350Y-107288068D01*
X134632786Y-107470046D01*
X134632614Y-107667089D01*
X124015500Y-107667089D01*
X124015500Y-106755608D01*
X124953599Y-106755608D01*
X125028845Y-106937718D01*
X125168053Y-107077169D01*
X125350031Y-107152733D01*
X125547074Y-107152905D01*
X125729184Y-107077659D01*
X125868635Y-106938451D01*
X125944199Y-106756473D01*
X125944371Y-106559430D01*
X125877294Y-106397089D01*
X125996614Y-106397089D01*
X126071860Y-106579199D01*
X126211068Y-106718650D01*
X126393046Y-106794214D01*
X126590089Y-106794386D01*
X126772199Y-106719140D01*
X126911650Y-106579932D01*
X126987214Y-106397954D01*
X126987386Y-106200911D01*
X126912140Y-106018801D01*
X126772932Y-105879350D01*
X126590954Y-105803786D01*
X126393911Y-105803614D01*
X126211801Y-105878860D01*
X126072350Y-106018068D01*
X125996786Y-106200046D01*
X125996614Y-106397089D01*
X125877294Y-106397089D01*
X125869125Y-106377320D01*
X125729917Y-106237869D01*
X125547939Y-106162305D01*
X125350896Y-106162133D01*
X125168786Y-106237379D01*
X125029335Y-106376587D01*
X124953771Y-106558565D01*
X124953599Y-106755608D01*
X124015500Y-106755608D01*
X124015500Y-100925920D01*
X126363567Y-100925920D01*
X126438813Y-101108030D01*
X126578021Y-101247481D01*
X126759999Y-101323045D01*
X126957042Y-101323217D01*
X127139152Y-101247971D01*
X127241300Y-101146001D01*
X127241300Y-103129773D01*
X127139885Y-103028181D01*
X126957907Y-102952617D01*
X126760864Y-102952445D01*
X126578754Y-103027691D01*
X126439303Y-103166899D01*
X126363739Y-103348877D01*
X126363567Y-103545920D01*
X126438813Y-103728030D01*
X126578021Y-103867481D01*
X126759999Y-103943045D01*
X126957042Y-103943217D01*
X127139152Y-103867971D01*
X127278603Y-103728763D01*
X127354167Y-103546785D01*
X127354339Y-103349742D01*
X127350272Y-103339900D01*
X129082800Y-103339900D01*
X129105880Y-103335557D01*
X129127077Y-103321917D01*
X129141297Y-103301105D01*
X129146300Y-103276400D01*
X129146300Y-102019100D01*
X131813300Y-102019100D01*
X131813300Y-103276400D01*
X131817643Y-103299480D01*
X131831283Y-103320677D01*
X131852095Y-103334897D01*
X131876800Y-103339900D01*
X133705600Y-103339900D01*
X133728680Y-103335557D01*
X133749877Y-103321917D01*
X133764097Y-103301105D01*
X133769100Y-103276400D01*
X133769100Y-99158089D01*
X134505614Y-99158089D01*
X134580860Y-99340199D01*
X134720068Y-99479650D01*
X134902046Y-99555214D01*
X135099089Y-99555386D01*
X135281199Y-99480140D01*
X135420650Y-99340932D01*
X135496214Y-99158954D01*
X135496386Y-98961911D01*
X135421140Y-98779801D01*
X135281932Y-98640350D01*
X135099954Y-98564786D01*
X134902911Y-98564614D01*
X134720801Y-98639860D01*
X134581350Y-98779068D01*
X134505786Y-98961046D01*
X134505614Y-99158089D01*
X133769100Y-99158089D01*
X133769100Y-96774000D01*
X133764757Y-96750920D01*
X133751117Y-96729723D01*
X133730305Y-96715503D01*
X133705600Y-96710500D01*
X131876800Y-96710500D01*
X131853720Y-96714843D01*
X131832523Y-96728483D01*
X131818303Y-96749295D01*
X131813300Y-96774000D01*
X131813300Y-98031300D01*
X129146300Y-98031300D01*
X129146300Y-96723200D01*
X129141957Y-96700120D01*
X129128317Y-96678923D01*
X129107505Y-96664703D01*
X129082800Y-96659700D01*
X127304800Y-96659700D01*
X127281720Y-96664043D01*
X127260523Y-96677683D01*
X127246303Y-96698495D01*
X127241300Y-96723200D01*
X127241300Y-98854871D01*
X127153932Y-98767350D01*
X126971954Y-98691786D01*
X126774911Y-98691614D01*
X126592801Y-98766860D01*
X126453350Y-98906068D01*
X126377786Y-99088046D01*
X126377614Y-99285089D01*
X126452860Y-99467199D01*
X126592068Y-99606650D01*
X126774046Y-99682214D01*
X126971089Y-99682386D01*
X127153199Y-99607140D01*
X127241300Y-99519193D01*
X127241300Y-100509773D01*
X127139885Y-100408181D01*
X126957907Y-100332617D01*
X126760864Y-100332445D01*
X126578754Y-100407691D01*
X126439303Y-100546899D01*
X126363739Y-100728877D01*
X126363567Y-100925920D01*
X124015500Y-100925920D01*
X124015500Y-97030018D01*
X124052068Y-97066650D01*
X124234046Y-97142214D01*
X124431089Y-97142386D01*
X124613199Y-97067140D01*
X124681368Y-96999089D01*
X125488614Y-96999089D01*
X125563860Y-97181199D01*
X125703068Y-97320650D01*
X125885046Y-97396214D01*
X126082089Y-97396386D01*
X126264199Y-97321140D01*
X126403650Y-97181932D01*
X126479214Y-96999954D01*
X126479386Y-96802911D01*
X126404140Y-96620801D01*
X126264932Y-96481350D01*
X126082954Y-96405786D01*
X125885911Y-96405614D01*
X125703801Y-96480860D01*
X125564350Y-96620068D01*
X125488786Y-96802046D01*
X125488614Y-96999089D01*
X124681368Y-96999089D01*
X124752650Y-96927932D01*
X124828214Y-96745954D01*
X124828386Y-96548911D01*
X124753140Y-96366801D01*
X124613932Y-96227350D01*
X124431954Y-96151786D01*
X124234911Y-96151614D01*
X124052801Y-96226860D01*
X124015500Y-96264096D01*
X124015500Y-95348089D01*
X127798614Y-95348089D01*
X127873860Y-95530199D01*
X128013068Y-95669650D01*
X128195046Y-95745214D01*
X128392089Y-95745386D01*
X128574199Y-95670140D01*
X128713650Y-95530932D01*
X128789214Y-95348954D01*
X128789386Y-95151911D01*
X128714140Y-94969801D01*
X128574932Y-94830350D01*
X128392954Y-94754786D01*
X128195911Y-94754614D01*
X128013801Y-94829860D01*
X127874350Y-94969068D01*
X127798786Y-95151046D01*
X127798614Y-95348089D01*
X124015500Y-95348089D01*
X124015500Y-92846189D01*
X126123614Y-92846189D01*
X126198860Y-93028299D01*
X126338068Y-93167750D01*
X126520046Y-93243314D01*
X126717089Y-93243486D01*
X126899199Y-93168240D01*
X127000099Y-93067515D01*
X130878625Y-93067515D01*
X130953871Y-93249625D01*
X131093079Y-93389076D01*
X131275057Y-93464640D01*
X131472100Y-93464812D01*
X131654210Y-93389566D01*
X131793661Y-93250358D01*
X131869225Y-93068380D01*
X131869397Y-92871337D01*
X131794151Y-92689227D01*
X131654943Y-92549776D01*
X131472965Y-92474212D01*
X131275922Y-92474040D01*
X131093812Y-92549286D01*
X130954361Y-92688494D01*
X130878797Y-92870472D01*
X130878625Y-93067515D01*
X127000099Y-93067515D01*
X127038650Y-93029032D01*
X127114214Y-92847054D01*
X127114386Y-92650011D01*
X127039140Y-92467901D01*
X126899932Y-92328450D01*
X126717954Y-92252886D01*
X126520911Y-92252714D01*
X126338801Y-92327960D01*
X126199350Y-92467168D01*
X126123786Y-92649146D01*
X126123614Y-92846189D01*
X124015500Y-92846189D01*
X124015500Y-91792089D01*
X125385614Y-91792089D01*
X125460860Y-91974199D01*
X125600068Y-92113650D01*
X125782046Y-92189214D01*
X125979089Y-92189386D01*
X126161199Y-92114140D01*
X126300650Y-91974932D01*
X126376214Y-91792954D01*
X126376214Y-91792089D01*
X126885614Y-91792089D01*
X126960860Y-91974199D01*
X127100068Y-92113650D01*
X127282046Y-92189214D01*
X127479089Y-92189386D01*
X127661199Y-92114140D01*
X127800650Y-91974932D01*
X127876214Y-91792954D01*
X127876214Y-91792089D01*
X128282614Y-91792089D01*
X128357860Y-91974199D01*
X128497068Y-92113650D01*
X128679046Y-92189214D01*
X128876089Y-92189386D01*
X129058199Y-92114140D01*
X129197650Y-91974932D01*
X129273214Y-91792954D01*
X129273386Y-91595911D01*
X129198140Y-91413801D01*
X129058932Y-91274350D01*
X128876954Y-91198786D01*
X128679911Y-91198614D01*
X128497801Y-91273860D01*
X128358350Y-91413068D01*
X128282786Y-91595046D01*
X128282614Y-91792089D01*
X127876214Y-91792089D01*
X127876386Y-91595911D01*
X127801140Y-91413801D01*
X127661932Y-91274350D01*
X127479954Y-91198786D01*
X127282911Y-91198614D01*
X127100801Y-91273860D01*
X126961350Y-91413068D01*
X126885786Y-91595046D01*
X126885614Y-91792089D01*
X126376214Y-91792089D01*
X126376386Y-91595911D01*
X126301140Y-91413801D01*
X126161932Y-91274350D01*
X125979954Y-91198786D01*
X125782911Y-91198614D01*
X125600801Y-91273860D01*
X125461350Y-91413068D01*
X125385786Y-91595046D01*
X125385614Y-91792089D01*
X124015500Y-91792089D01*
X124015500Y-90780672D01*
X131611064Y-90780672D01*
X131686310Y-90962782D01*
X131825518Y-91102233D01*
X132007496Y-91177797D01*
X132204539Y-91177969D01*
X132386649Y-91102723D01*
X132526100Y-90963515D01*
X132601664Y-90781537D01*
X132601836Y-90584494D01*
X132526590Y-90402384D01*
X132387382Y-90262933D01*
X132205404Y-90187369D01*
X132008361Y-90187197D01*
X131826251Y-90262443D01*
X131686800Y-90401651D01*
X131611236Y-90583629D01*
X131611064Y-90780672D01*
X124015500Y-90780672D01*
X124015500Y-88982923D01*
X126767981Y-88982923D01*
X126843227Y-89165033D01*
X126982435Y-89304484D01*
X127164413Y-89380048D01*
X127361456Y-89380220D01*
X127364193Y-89379089D01*
X132111240Y-89379089D01*
X132186486Y-89561199D01*
X132325694Y-89700650D01*
X132507672Y-89776214D01*
X132704715Y-89776386D01*
X132886825Y-89701140D01*
X133026276Y-89561932D01*
X133101840Y-89379954D01*
X133102012Y-89182911D01*
X133026766Y-89000801D01*
X132887558Y-88861350D01*
X132705580Y-88785786D01*
X132508537Y-88785614D01*
X132326427Y-88860860D01*
X132186976Y-89000068D01*
X132111412Y-89182046D01*
X132111240Y-89379089D01*
X127364193Y-89379089D01*
X127543566Y-89304974D01*
X127683017Y-89165766D01*
X127758581Y-88983788D01*
X127758612Y-88947769D01*
X128033529Y-88947769D01*
X128108775Y-89129879D01*
X128247983Y-89269330D01*
X128429961Y-89344894D01*
X128627004Y-89345066D01*
X128809114Y-89269820D01*
X128948565Y-89130612D01*
X129024129Y-88948634D01*
X129024301Y-88751591D01*
X128949055Y-88569481D01*
X128809847Y-88430030D01*
X128627869Y-88354466D01*
X128430826Y-88354294D01*
X128248716Y-88429540D01*
X128109265Y-88568748D01*
X128033701Y-88750726D01*
X128033529Y-88947769D01*
X127758612Y-88947769D01*
X127758753Y-88786745D01*
X127683507Y-88604635D01*
X127544299Y-88465184D01*
X127362321Y-88389620D01*
X127165278Y-88389448D01*
X126983168Y-88464694D01*
X126843717Y-88603902D01*
X126768153Y-88785880D01*
X126767981Y-88982923D01*
X124015500Y-88982923D01*
X124015500Y-88424609D01*
X124072121Y-88561643D01*
X124211329Y-88701094D01*
X124393307Y-88776658D01*
X124590350Y-88776830D01*
X124772460Y-88701584D01*
X124911911Y-88562376D01*
X124918354Y-88546861D01*
X125015169Y-88643845D01*
X125197147Y-88719409D01*
X125394190Y-88719581D01*
X125576300Y-88644335D01*
X125715751Y-88505127D01*
X125791315Y-88323149D01*
X125791487Y-88126106D01*
X125716241Y-87943996D01*
X125577033Y-87804545D01*
X125395055Y-87728981D01*
X125198012Y-87728809D01*
X125015902Y-87804055D01*
X124876451Y-87943263D01*
X124870008Y-87958778D01*
X124786315Y-87874939D01*
X124892196Y-87831190D01*
X125029687Y-87693938D01*
X126767981Y-87693938D01*
X126843227Y-87876048D01*
X126982435Y-88015499D01*
X127164413Y-88091063D01*
X127361456Y-88091235D01*
X127543566Y-88015989D01*
X127683017Y-87876781D01*
X127749208Y-87717374D01*
X128033529Y-87717374D01*
X128108775Y-87899484D01*
X128247983Y-88038935D01*
X128429961Y-88114499D01*
X128627004Y-88114671D01*
X128809114Y-88039425D01*
X128948565Y-87900217D01*
X129024129Y-87718239D01*
X129024153Y-87689839D01*
X133151494Y-87689839D01*
X133334400Y-88132505D01*
X133672784Y-88471479D01*
X134115130Y-88655158D01*
X134594095Y-88655576D01*
X135036761Y-88472670D01*
X135375735Y-88134286D01*
X135559414Y-87691940D01*
X135559832Y-87212975D01*
X135376926Y-86770309D01*
X135038542Y-86431335D01*
X134596196Y-86247656D01*
X134117231Y-86247238D01*
X133674565Y-86430144D01*
X133335591Y-86768528D01*
X133151912Y-87210874D01*
X133151494Y-87689839D01*
X129024153Y-87689839D01*
X129024301Y-87521196D01*
X128949055Y-87339086D01*
X128809847Y-87199635D01*
X128627869Y-87124071D01*
X128430826Y-87123899D01*
X128248716Y-87199145D01*
X128109265Y-87338353D01*
X128033701Y-87520331D01*
X128033529Y-87717374D01*
X127749208Y-87717374D01*
X127758581Y-87694803D01*
X127758753Y-87497760D01*
X127683507Y-87315650D01*
X127544299Y-87176199D01*
X127388384Y-87111457D01*
X130149142Y-87111457D01*
X130224388Y-87293567D01*
X130363596Y-87433018D01*
X130545574Y-87508582D01*
X130742617Y-87508754D01*
X130924727Y-87433508D01*
X131050412Y-87308042D01*
X131062117Y-87333173D01*
X131444735Y-87493192D01*
X131859465Y-87494610D01*
X132243168Y-87337210D01*
X132249209Y-87333173D01*
X132323675Y-87173300D01*
X131655663Y-86505289D01*
X131641521Y-86519431D01*
X131587639Y-86465549D01*
X131601781Y-86451407D01*
X131709545Y-86451407D01*
X132377556Y-87119419D01*
X132537429Y-87044953D01*
X132697448Y-86662335D01*
X132698866Y-86247605D01*
X132541466Y-85863902D01*
X132537429Y-85857861D01*
X132377556Y-85783395D01*
X131709545Y-86451407D01*
X131601781Y-86451407D01*
X130933770Y-85783395D01*
X130773897Y-85857861D01*
X130613878Y-86240479D01*
X130612929Y-86518040D01*
X130546439Y-86517982D01*
X130364329Y-86593228D01*
X130224878Y-86732436D01*
X130149314Y-86914414D01*
X130149142Y-87111457D01*
X127388384Y-87111457D01*
X127362321Y-87100635D01*
X127165278Y-87100463D01*
X126983168Y-87175709D01*
X126843717Y-87314917D01*
X126768153Y-87496895D01*
X126767981Y-87693938D01*
X125029687Y-87693938D01*
X125031647Y-87691982D01*
X125107211Y-87510004D01*
X125107383Y-87312961D01*
X125032137Y-87130851D01*
X124892929Y-86991400D01*
X124710951Y-86915836D01*
X124513908Y-86915664D01*
X124331798Y-86990910D01*
X124192347Y-87130118D01*
X124116783Y-87312096D01*
X124116611Y-87509139D01*
X124191857Y-87691249D01*
X124317943Y-87817555D01*
X124212062Y-87861304D01*
X124072611Y-88000512D01*
X124015500Y-88138050D01*
X124015500Y-86755833D01*
X124030806Y-86771166D01*
X124212784Y-86846730D01*
X124409827Y-86846902D01*
X124591937Y-86771656D01*
X124731388Y-86632448D01*
X124806952Y-86450470D01*
X124807124Y-86253427D01*
X124731878Y-86071317D01*
X124592670Y-85931866D01*
X124499170Y-85893041D01*
X129367104Y-85893041D01*
X129442350Y-86075151D01*
X129581558Y-86214602D01*
X129763536Y-86290166D01*
X129960579Y-86290338D01*
X130142689Y-86215092D01*
X130282140Y-86075884D01*
X130357704Y-85893906D01*
X130357847Y-85729514D01*
X130987651Y-85729514D01*
X131655663Y-86397525D01*
X132323675Y-85729514D01*
X132249209Y-85569641D01*
X131866591Y-85409622D01*
X131451861Y-85408204D01*
X131068158Y-85565604D01*
X131062117Y-85569641D01*
X130987651Y-85729514D01*
X130357847Y-85729514D01*
X130357876Y-85696863D01*
X130282630Y-85514753D01*
X130143422Y-85375302D01*
X129961444Y-85299738D01*
X129764401Y-85299566D01*
X129582291Y-85374812D01*
X129442840Y-85514020D01*
X129367276Y-85695998D01*
X129367104Y-85893041D01*
X124499170Y-85893041D01*
X124410692Y-85856302D01*
X124213649Y-85856130D01*
X124031539Y-85931376D01*
X124015500Y-85947387D01*
X124015500Y-82775089D01*
X124599614Y-82775089D01*
X124674860Y-82957199D01*
X124814068Y-83096650D01*
X124996046Y-83172214D01*
X125193089Y-83172386D01*
X125375199Y-83097140D01*
X125514650Y-82957932D01*
X125590214Y-82775954D01*
X125590386Y-82578911D01*
X125515140Y-82396801D01*
X125375932Y-82257350D01*
X125193954Y-82181786D01*
X124996911Y-82181614D01*
X124814801Y-82256860D01*
X124675350Y-82396068D01*
X124599786Y-82578046D01*
X124599614Y-82775089D01*
X124015500Y-82775089D01*
X124015500Y-82173300D01*
X130987651Y-82173300D01*
X131062117Y-82333173D01*
X131444735Y-82493192D01*
X131859465Y-82494610D01*
X132243168Y-82337210D01*
X132249209Y-82333173D01*
X132323675Y-82173300D01*
X131655663Y-81505289D01*
X130987651Y-82173300D01*
X124015500Y-82173300D01*
X124015500Y-81655209D01*
X130612460Y-81655209D01*
X130769860Y-82038912D01*
X130773897Y-82044953D01*
X130933770Y-82119419D01*
X131601781Y-81451407D01*
X131709545Y-81451407D01*
X132377556Y-82119419D01*
X132537429Y-82044953D01*
X132697448Y-81662335D01*
X132698565Y-81335585D01*
X133525366Y-81335585D01*
X133627227Y-81518833D01*
X134091162Y-81716340D01*
X134595364Y-81721272D01*
X135063075Y-81532879D01*
X135084099Y-81518833D01*
X135185960Y-81335585D01*
X134355663Y-80505289D01*
X133525366Y-81335585D01*
X132698565Y-81335585D01*
X132698866Y-81247605D01*
X132541466Y-80863902D01*
X132537429Y-80857861D01*
X132377556Y-80783395D01*
X131709545Y-81451407D01*
X131601781Y-81451407D01*
X130933770Y-80783395D01*
X130773897Y-80857861D01*
X130613878Y-81240479D01*
X130612460Y-81655209D01*
X124015500Y-81655209D01*
X124015500Y-80729514D01*
X130987651Y-80729514D01*
X131655663Y-81397525D01*
X132323675Y-80729514D01*
X132305787Y-80691108D01*
X133085798Y-80691108D01*
X133274191Y-81158819D01*
X133288237Y-81179843D01*
X133471485Y-81281704D01*
X134301781Y-80451407D01*
X134409545Y-80451407D01*
X135239841Y-81281704D01*
X135423089Y-81179843D01*
X135620596Y-80715908D01*
X135625528Y-80211706D01*
X135437135Y-79743995D01*
X135423089Y-79722971D01*
X135239841Y-79621110D01*
X134409545Y-80451407D01*
X134301781Y-80451407D01*
X133471485Y-79621110D01*
X133288237Y-79722971D01*
X133090730Y-80186906D01*
X133085798Y-80691108D01*
X132305787Y-80691108D01*
X132249209Y-80569641D01*
X131866591Y-80409622D01*
X131451861Y-80408204D01*
X131068158Y-80565604D01*
X131062117Y-80569641D01*
X130987651Y-80729514D01*
X124015500Y-80729514D01*
X124015500Y-79567229D01*
X133525366Y-79567229D01*
X134355663Y-80397525D01*
X135185960Y-79567229D01*
X135084099Y-79383981D01*
X134620164Y-79186474D01*
X134115962Y-79181542D01*
X133648251Y-79369935D01*
X133627227Y-79383981D01*
X133525366Y-79567229D01*
X124015500Y-79567229D01*
X124015500Y-79107500D01*
X129794000Y-79107500D01*
X129817231Y-79102879D01*
X129840919Y-79102879D01*
X130132524Y-79044875D01*
X130132525Y-79044875D01*
X130219220Y-79008964D01*
X130336649Y-78930500D01*
X135649500Y-78930500D01*
X135649500Y-113855500D01*
M02*
