M48
;DRILL file {KiCad 4.0.7} date Wednesday, October 18, 2017 'PMt' 08:09:58 PM
;FORMAT={2:4/ absolute / inch / suppress leading zeros}
FMAT,2
INCH,TZ
T1C0.012
T2C0.033
T3C0.051
T4C0.087
%
G90
G05
M72
T1
X48942Y-33997
X48950Y-38050
X49013Y-34756
X49025Y-35591
X49025Y-37173
X49060Y-34414
X49200Y-38505
X49250Y-32550
X49329Y-34734
X49389Y-41243
X49389Y-41991
X49559Y-36100
X49600Y-38150
X49800Y-41850
X49850Y-36515
X49944Y-39696
X49944Y-40727
X49950Y-38459
X49950Y-39050
X49950Y-42850
X50104Y-34487
X50104Y-34994
X50150Y-36100
X50450Y-43200
X50509Y-37500
X50602Y-34496
X50602Y-34980
X50700Y-36100
X50726Y-41128
X50750Y-43000
X50750Y-43209
X51127Y-33778
X51291Y-36100
X51435Y-34257
X51722Y-36602
X51969Y-42350
X52010Y-35702
X52207Y-35150
X52356Y-32673
X52356Y-33273
X52500Y-37305
X52750Y-41350
X53150Y-39000
X53185Y-35191
X53185Y-36609
X53200Y-42350
T2
X51833Y-32067
X51833Y-34036
T3
X52896Y-31674
X52896Y-34430
T4
X52450Y-30050
X52500Y-45900
T0
M30
