G04 #@! TF.FileFunction,Legend,Top*
%FSLAX46Y46*%
G04 Gerber Fmt 4.6, Leading zero omitted, Abs format (unit mm)*
G04 Created by KiCad (PCBNEW 4.0.7) date Wednesday, October 18, 2017 'PMt' 08:17:54 PM*
%MOMM*%
%LPD*%
G01*
G04 APERTURE LIST*
%ADD10C,0.150000*%
%ADD11C,0.120000*%
%ADD12C,0.381000*%
G04 APERTURE END LIST*
D10*
X126273000Y-98787000D02*
X126273000Y-98087000D01*
X127473000Y-98087000D02*
X127473000Y-98787000D01*
X134451000Y-94404000D02*
X134451000Y-96304000D01*
X135551000Y-94404000D02*
X135551000Y-96304000D01*
X135001000Y-95304000D02*
X135001000Y-95754000D01*
X135251000Y-95254000D02*
X134751000Y-95254000D01*
X135001000Y-95254000D02*
X135251000Y-95504000D01*
X135251000Y-95504000D02*
X134751000Y-95504000D01*
X134751000Y-95504000D02*
X135001000Y-95254000D01*
D11*
X133620000Y-108930000D02*
X135620000Y-108930000D01*
X135620000Y-108930000D02*
X135620000Y-105030000D01*
X133620000Y-108930000D02*
X133620000Y-105030000D01*
D10*
X132800000Y-94404000D02*
X132800000Y-96304000D01*
X133900000Y-94404000D02*
X133900000Y-96304000D01*
X133350000Y-95304000D02*
X133350000Y-95754000D01*
X133600000Y-95254000D02*
X133100000Y-95254000D01*
X133350000Y-95254000D02*
X133600000Y-95504000D01*
X133600000Y-95504000D02*
X133100000Y-95504000D01*
X133100000Y-95504000D02*
X133350000Y-95254000D01*
D11*
X131355663Y-87851407D02*
X131355663Y-87401407D01*
X133205663Y-87851407D02*
X131355663Y-87851407D01*
X135755663Y-80051407D02*
X135505663Y-80051407D01*
X135755663Y-87851407D02*
X135505663Y-87851407D01*
X133205663Y-80051407D02*
X131355663Y-80051407D01*
X131355663Y-80051407D02*
X131355663Y-80501407D01*
X130755663Y-86051407D02*
X130455663Y-86051407D01*
X130455663Y-86051407D02*
X130455663Y-85751407D01*
X130455663Y-85751407D02*
X130755663Y-85751407D01*
X130755663Y-85751407D02*
X130755663Y-86051407D01*
D12*
X124096780Y-113393220D02*
X124096780Y-105892600D01*
X132097780Y-105892600D02*
X132097780Y-113393220D01*
X132097780Y-105892600D02*
X131696460Y-105892600D01*
X131897120Y-107393740D02*
X131897120Y-105892600D01*
X131696460Y-105892600D02*
X131696460Y-107393740D01*
X124297440Y-105892600D02*
X124297440Y-107393740D01*
X124498100Y-107393740D02*
X124498100Y-105892600D01*
X124498100Y-105892600D02*
X124096780Y-105892600D01*
X127596900Y-113393220D02*
X127596900Y-112392460D01*
X127596900Y-112392460D02*
X128597660Y-112392460D01*
X128597660Y-112392460D02*
X128597660Y-113393220D01*
X126098300Y-107393740D02*
X126098300Y-111892080D01*
X126098300Y-111892080D02*
X125397260Y-111892080D01*
X125397260Y-111892080D02*
X125397260Y-107393740D01*
X130096260Y-107393740D02*
X130096260Y-111892080D01*
X130096260Y-111892080D02*
X130797300Y-111892080D01*
X130797300Y-111892080D02*
X130797300Y-107393740D01*
X124096780Y-113393220D02*
X132097780Y-113393220D01*
X132097780Y-107393740D02*
X124096780Y-107393740D01*
X126796800Y-113393220D02*
X126497080Y-113393220D01*
D10*
X125643000Y-98052000D02*
X125643000Y-99052000D01*
X124293000Y-99052000D02*
X124293000Y-98052000D01*
X129786000Y-84368000D02*
X128786000Y-84368000D01*
X128786000Y-83018000D02*
X129786000Y-83018000D01*
X129786000Y-82717000D02*
X128786000Y-82717000D01*
X128786000Y-81367000D02*
X129786000Y-81367000D01*
X130469000Y-85352000D02*
X130469000Y-86352000D01*
X129119000Y-86352000D02*
X129119000Y-85352000D01*
X135676000Y-97810000D02*
X135676000Y-98810000D01*
X134326000Y-98810000D02*
X134326000Y-97810000D01*
X132374000Y-95016000D02*
X132374000Y-96016000D01*
X131024000Y-96016000D02*
X131024000Y-95016000D01*
D11*
X127468953Y-103017831D02*
X127468953Y-101257831D01*
X124398953Y-101257831D02*
X124398953Y-103687831D01*
D10*
X130845000Y-90266000D02*
X130845000Y-89566000D01*
X132045000Y-89566000D02*
X132045000Y-90266000D01*
X123672000Y-93052000D02*
X123122000Y-93052000D01*
X123122000Y-93052000D02*
X123122000Y-91352000D01*
X123122000Y-91352000D02*
X123672000Y-91352000D01*
X126772000Y-90452000D02*
X126772000Y-93952000D01*
X123672000Y-93952000D02*
X123672000Y-90452000D01*
X135916000Y-90336000D02*
X136466000Y-90336000D01*
X136466000Y-90336000D02*
X136466000Y-92036000D01*
X136466000Y-92036000D02*
X135916000Y-92036000D01*
X132816000Y-92936000D02*
X132816000Y-89436000D01*
X135916000Y-89436000D02*
X135916000Y-92936000D01*
X127230143Y-96051666D02*
X127277762Y-96099285D01*
X127325381Y-96242142D01*
X127325381Y-96337380D01*
X127277762Y-96480238D01*
X127182524Y-96575476D01*
X127087286Y-96623095D01*
X126896810Y-96670714D01*
X126753952Y-96670714D01*
X126563476Y-96623095D01*
X126468238Y-96575476D01*
X126373000Y-96480238D01*
X126325381Y-96337380D01*
X126325381Y-96242142D01*
X126373000Y-96099285D01*
X126420619Y-96051666D01*
X127325381Y-95099285D02*
X127325381Y-95670714D01*
X127325381Y-95385000D02*
X126325381Y-95385000D01*
X126468238Y-95480238D01*
X126563476Y-95575476D01*
X126611095Y-95670714D01*
X133948714Y-98352428D02*
X133186714Y-98352428D01*
X133186714Y-98171000D01*
X133223000Y-98062143D01*
X133295571Y-97989571D01*
X133368143Y-97953286D01*
X133513286Y-97917000D01*
X133622143Y-97917000D01*
X133767286Y-97953286D01*
X133839857Y-97989571D01*
X133912429Y-98062143D01*
X133948714Y-98171000D01*
X133948714Y-98352428D01*
X133259286Y-97626714D02*
X133223000Y-97590428D01*
X133186714Y-97517857D01*
X133186714Y-97336428D01*
X133223000Y-97263857D01*
X133259286Y-97227571D01*
X133331857Y-97191286D01*
X133404429Y-97191286D01*
X133513286Y-97227571D01*
X133948714Y-97663000D01*
X133948714Y-97191286D01*
X135072381Y-103989095D02*
X134072381Y-103989095D01*
X134072381Y-103751000D01*
X134120000Y-103608142D01*
X134215238Y-103512904D01*
X134310476Y-103465285D01*
X134500952Y-103417666D01*
X134643810Y-103417666D01*
X134834286Y-103465285D01*
X134929524Y-103512904D01*
X135024762Y-103608142D01*
X135072381Y-103751000D01*
X135072381Y-103989095D01*
X134072381Y-103084333D02*
X134072381Y-102465285D01*
X134453333Y-102798619D01*
X134453333Y-102655761D01*
X134500952Y-102560523D01*
X134548571Y-102512904D01*
X134643810Y-102465285D01*
X134881905Y-102465285D01*
X134977143Y-102512904D01*
X135024762Y-102560523D01*
X135072381Y-102655761D01*
X135072381Y-102941476D01*
X135024762Y-103036714D01*
X134977143Y-103084333D01*
X132805714Y-98352428D02*
X132043714Y-98352428D01*
X132043714Y-98171000D01*
X132080000Y-98062143D01*
X132152571Y-97989571D01*
X132225143Y-97953286D01*
X132370286Y-97917000D01*
X132479143Y-97917000D01*
X132624286Y-97953286D01*
X132696857Y-97989571D01*
X132769429Y-98062143D01*
X132805714Y-98171000D01*
X132805714Y-98352428D01*
X132297714Y-97263857D02*
X132805714Y-97263857D01*
X132007429Y-97445286D02*
X132551714Y-97626714D01*
X132551714Y-97155000D01*
X134620844Y-79200333D02*
X135335130Y-79200333D01*
X135477987Y-79247953D01*
X135573225Y-79343191D01*
X135620844Y-79486048D01*
X135620844Y-79581286D01*
X135620844Y-78200333D02*
X135620844Y-78771762D01*
X135620844Y-78486048D02*
X134620844Y-78486048D01*
X134763701Y-78581286D01*
X134858939Y-78676524D01*
X134906558Y-78771762D01*
X125420381Y-96305666D02*
X124944190Y-96639000D01*
X125420381Y-96877095D02*
X124420381Y-96877095D01*
X124420381Y-96496142D01*
X124468000Y-96400904D01*
X124515619Y-96353285D01*
X124610857Y-96305666D01*
X124753714Y-96305666D01*
X124848952Y-96353285D01*
X124896571Y-96400904D01*
X124944190Y-96496142D01*
X124944190Y-96877095D01*
X125420381Y-95353285D02*
X125420381Y-95924714D01*
X125420381Y-95639000D02*
X124420381Y-95639000D01*
X124563238Y-95734238D01*
X124658476Y-95829476D01*
X124706095Y-95924714D01*
X126833334Y-84272381D02*
X126500000Y-83796190D01*
X126261905Y-84272381D02*
X126261905Y-83272381D01*
X126642858Y-83272381D01*
X126738096Y-83320000D01*
X126785715Y-83367619D01*
X126833334Y-83462857D01*
X126833334Y-83605714D01*
X126785715Y-83700952D01*
X126738096Y-83748571D01*
X126642858Y-83796190D01*
X126261905Y-83796190D01*
X127214286Y-83367619D02*
X127261905Y-83320000D01*
X127357143Y-83272381D01*
X127595239Y-83272381D01*
X127690477Y-83320000D01*
X127738096Y-83367619D01*
X127785715Y-83462857D01*
X127785715Y-83558095D01*
X127738096Y-83700952D01*
X127166667Y-84272381D01*
X127785715Y-84272381D01*
X126833334Y-82621381D02*
X126500000Y-82145190D01*
X126261905Y-82621381D02*
X126261905Y-81621381D01*
X126642858Y-81621381D01*
X126738096Y-81669000D01*
X126785715Y-81716619D01*
X126833334Y-81811857D01*
X126833334Y-81954714D01*
X126785715Y-82049952D01*
X126738096Y-82097571D01*
X126642858Y-82145190D01*
X126261905Y-82145190D01*
X127166667Y-81621381D02*
X127785715Y-81621381D01*
X127452381Y-82002333D01*
X127595239Y-82002333D01*
X127690477Y-82049952D01*
X127738096Y-82097571D01*
X127785715Y-82192810D01*
X127785715Y-82430905D01*
X127738096Y-82526143D01*
X127690477Y-82573762D01*
X127595239Y-82621381D01*
X127309524Y-82621381D01*
X127214286Y-82573762D01*
X127166667Y-82526143D01*
X128849381Y-85637666D02*
X128373190Y-85971000D01*
X128849381Y-86209095D02*
X127849381Y-86209095D01*
X127849381Y-85828142D01*
X127897000Y-85732904D01*
X127944619Y-85685285D01*
X128039857Y-85637666D01*
X128182714Y-85637666D01*
X128277952Y-85685285D01*
X128325571Y-85732904D01*
X128373190Y-85828142D01*
X128373190Y-86209095D01*
X127849381Y-84732904D02*
X127849381Y-85209095D01*
X128325571Y-85256714D01*
X128277952Y-85209095D01*
X128230333Y-85113857D01*
X128230333Y-84875761D01*
X128277952Y-84780523D01*
X128325571Y-84732904D01*
X128420810Y-84685285D01*
X128658905Y-84685285D01*
X128754143Y-84732904D01*
X128801762Y-84780523D01*
X128849381Y-84875761D01*
X128849381Y-85113857D01*
X128801762Y-85209095D01*
X128754143Y-85256714D01*
X135472714Y-100584000D02*
X135109857Y-100838000D01*
X135472714Y-101019428D02*
X134710714Y-101019428D01*
X134710714Y-100729143D01*
X134747000Y-100656571D01*
X134783286Y-100620286D01*
X134855857Y-100584000D01*
X134964714Y-100584000D01*
X135037286Y-100620286D01*
X135073571Y-100656571D01*
X135109857Y-100729143D01*
X135109857Y-101019428D01*
X135472714Y-100221143D02*
X135472714Y-100076000D01*
X135436429Y-100003428D01*
X135400143Y-99967143D01*
X135291286Y-99894571D01*
X135146143Y-99858286D01*
X134855857Y-99858286D01*
X134783286Y-99894571D01*
X134747000Y-99930857D01*
X134710714Y-100003428D01*
X134710714Y-100148571D01*
X134747000Y-100221143D01*
X134783286Y-100257428D01*
X134855857Y-100293714D01*
X135037286Y-100293714D01*
X135109857Y-100257428D01*
X135146143Y-100221143D01*
X135182429Y-100148571D01*
X135182429Y-100003428D01*
X135146143Y-99930857D01*
X135109857Y-99894571D01*
X135037286Y-99858286D01*
X130500381Y-96146857D02*
X130024190Y-96480191D01*
X130500381Y-96718286D02*
X129500381Y-96718286D01*
X129500381Y-96337333D01*
X129548000Y-96242095D01*
X129595619Y-96194476D01*
X129690857Y-96146857D01*
X129833714Y-96146857D01*
X129928952Y-96194476D01*
X129976571Y-96242095D01*
X130024190Y-96337333D01*
X130024190Y-96718286D01*
X130500381Y-95194476D02*
X130500381Y-95765905D01*
X130500381Y-95480191D02*
X129500381Y-95480191D01*
X129643238Y-95575429D01*
X129738476Y-95670667D01*
X129786095Y-95765905D01*
X129500381Y-94575429D02*
X129500381Y-94480190D01*
X129548000Y-94384952D01*
X129595619Y-94337333D01*
X129690857Y-94289714D01*
X129881333Y-94242095D01*
X130119429Y-94242095D01*
X130309905Y-94289714D01*
X130405143Y-94337333D01*
X130452762Y-94384952D01*
X130500381Y-94480190D01*
X130500381Y-94575429D01*
X130452762Y-94670667D01*
X130405143Y-94718286D01*
X130309905Y-94765905D01*
X130119429Y-94813524D01*
X129881333Y-94813524D01*
X129690857Y-94765905D01*
X129595619Y-94718286D01*
X129548000Y-94670667D01*
X129500381Y-94575429D01*
X127849381Y-101472905D02*
X128658905Y-101472905D01*
X128754143Y-101425286D01*
X128801762Y-101377667D01*
X128849381Y-101282429D01*
X128849381Y-101091952D01*
X128801762Y-100996714D01*
X128754143Y-100949095D01*
X128658905Y-100901476D01*
X127849381Y-100901476D01*
X128849381Y-99901476D02*
X128849381Y-100472905D01*
X128849381Y-100187191D02*
X127849381Y-100187191D01*
X127992238Y-100282429D01*
X128087476Y-100377667D01*
X128135095Y-100472905D01*
X130405143Y-89955666D02*
X130452762Y-90003285D01*
X130500381Y-90146142D01*
X130500381Y-90241380D01*
X130452762Y-90384238D01*
X130357524Y-90479476D01*
X130262286Y-90527095D01*
X130071810Y-90574714D01*
X129928952Y-90574714D01*
X129738476Y-90527095D01*
X129643238Y-90479476D01*
X129548000Y-90384238D01*
X129500381Y-90241380D01*
X129500381Y-90146142D01*
X129548000Y-90003285D01*
X129595619Y-89955666D01*
X129500381Y-89098523D02*
X129500381Y-89289000D01*
X129548000Y-89384238D01*
X129595619Y-89431857D01*
X129738476Y-89527095D01*
X129928952Y-89574714D01*
X130309905Y-89574714D01*
X130405143Y-89527095D01*
X130452762Y-89479476D01*
X130500381Y-89384238D01*
X130500381Y-89193761D01*
X130452762Y-89098523D01*
X130405143Y-89050904D01*
X130309905Y-89003285D01*
X130071810Y-89003285D01*
X129976571Y-89050904D01*
X129928952Y-89098523D01*
X129881333Y-89193761D01*
X129881333Y-89384238D01*
X129928952Y-89479476D01*
X129976571Y-89527095D01*
X130071810Y-89574714D01*
X128039762Y-92138333D02*
X128087381Y-91995476D01*
X128087381Y-91757380D01*
X128039762Y-91662142D01*
X127992143Y-91614523D01*
X127896905Y-91566904D01*
X127801667Y-91566904D01*
X127706429Y-91614523D01*
X127658810Y-91662142D01*
X127611190Y-91757380D01*
X127563571Y-91947857D01*
X127515952Y-92043095D01*
X127468333Y-92090714D01*
X127373095Y-92138333D01*
X127277857Y-92138333D01*
X127182619Y-92090714D01*
X127135000Y-92043095D01*
X127087381Y-91947857D01*
X127087381Y-91709761D01*
X127135000Y-91566904D01*
X127087381Y-91233571D02*
X128087381Y-90995476D01*
X127373095Y-90804999D01*
X128087381Y-90614523D01*
X127087381Y-90376428D01*
X128087381Y-89471666D02*
X128087381Y-90043095D01*
X128087381Y-89757381D02*
X127087381Y-89757381D01*
X127230238Y-89852619D01*
X127325476Y-89947857D01*
X127373095Y-90043095D01*
X135569762Y-88223333D02*
X135617381Y-88080476D01*
X135617381Y-87842380D01*
X135569762Y-87747142D01*
X135522143Y-87699523D01*
X135426905Y-87651904D01*
X135331667Y-87651904D01*
X135236429Y-87699523D01*
X135188810Y-87747142D01*
X135141190Y-87842380D01*
X135093571Y-88032857D01*
X135045952Y-88128095D01*
X134998333Y-88175714D01*
X134903095Y-88223333D01*
X134807857Y-88223333D01*
X134712619Y-88175714D01*
X134665000Y-88128095D01*
X134617381Y-88032857D01*
X134617381Y-87794761D01*
X134665000Y-87651904D01*
X134617381Y-87318571D02*
X135617381Y-87080476D01*
X134903095Y-86889999D01*
X135617381Y-86699523D01*
X134617381Y-86461428D01*
X134712619Y-86128095D02*
X134665000Y-86080476D01*
X134617381Y-85985238D01*
X134617381Y-85747142D01*
X134665000Y-85651904D01*
X134712619Y-85604285D01*
X134807857Y-85556666D01*
X134903095Y-85556666D01*
X135045952Y-85604285D01*
X135617381Y-86175714D01*
X135617381Y-85556666D01*
M02*
