G04 #@! TF.FileFunction,Paste,Bot*
%FSLAX46Y46*%
G04 Gerber Fmt 4.6, Leading zero omitted, Abs format (unit mm)*
G04 Created by KiCad (PCBNEW 4.0.7) date Wednesday, October 18, 2017 'PMt' 08:17:54 PM*
%MOMM*%
%LPD*%
G01*
G04 APERTURE LIST*
%ADD10C,0.150000*%
%ADD11R,1.700000X1.700000*%
%ADD12O,1.700000X1.700000*%
%ADD13R,1.000000X1.600000*%
%ADD14R,0.800000X0.750000*%
%ADD15R,0.900000X1.200000*%
%ADD16R,2.400000X1.500000*%
%ADD17R,0.500000X1.000000*%
%ADD18R,0.500000X0.900000*%
%ADD19R,0.900000X0.500000*%
%ADD20R,0.730000X0.300000*%
%ADD21R,0.300000X0.730000*%
%ADD22R,0.750000X0.750000*%
%ADD23R,1.060000X0.650000*%
%ADD24R,0.750000X0.800000*%
%ADD25R,2.000000X3.800000*%
G04 APERTURE END LIST*
D10*
D11*
X125095000Y-80137000D03*
D12*
X125095000Y-82677000D03*
X127635000Y-80137000D03*
X127635000Y-82677000D03*
X130175000Y-80137000D03*
X130175000Y-82677000D03*
D13*
X131342000Y-94996000D03*
X134342000Y-94996000D03*
X135001000Y-107569000D03*
X132001000Y-107569000D03*
D14*
X128778000Y-91694000D03*
X130278000Y-91694000D03*
X125373000Y-108458000D03*
X126873000Y-108458000D03*
D15*
X135127000Y-105029000D03*
X131827000Y-105029000D03*
D16*
X130413606Y-102780738D03*
X130413606Y-97280738D03*
D17*
X130744000Y-104466000D03*
X130744000Y-107116000D03*
X129794000Y-104466000D03*
X129794000Y-107116000D03*
X128844000Y-104466000D03*
X128844000Y-107116000D03*
D18*
X125881000Y-91694000D03*
X127381000Y-91694000D03*
D19*
X128905000Y-111252000D03*
X128905000Y-109752000D03*
X125984000Y-101612000D03*
X125984000Y-103112000D03*
D18*
X128294000Y-95250000D03*
X129794000Y-95250000D03*
D20*
X129844000Y-87224200D03*
X129844000Y-87724200D03*
X129844000Y-88224200D03*
X129844000Y-88724200D03*
X129844000Y-89224200D03*
D21*
X128879000Y-90189200D03*
X128379000Y-90189200D03*
X127879000Y-90189200D03*
X127379000Y-90189200D03*
X126879000Y-90189200D03*
D20*
X125914000Y-89224200D03*
X125914000Y-88724200D03*
X125914000Y-88224200D03*
X125914000Y-87724200D03*
X125914000Y-87224200D03*
D21*
X126879000Y-86259200D03*
X127379000Y-86259200D03*
X127879000Y-86259200D03*
X128379000Y-86259200D03*
X128879000Y-86259200D03*
D22*
X127254000Y-88849200D03*
X127254000Y-87599200D03*
X128504000Y-88849200D03*
X128504000Y-87599200D03*
D23*
X125448985Y-106657519D03*
X125448985Y-105707519D03*
X125448985Y-104757519D03*
X127648985Y-104757519D03*
X127648985Y-106657519D03*
X127648985Y-105707519D03*
D19*
X124841000Y-93738000D03*
X124841000Y-95238000D03*
X126619000Y-93738000D03*
X126619000Y-95238000D03*
D24*
X131318000Y-90158000D03*
X131318000Y-88658000D03*
D25*
X134366000Y-111506000D03*
X131318000Y-111506000D03*
M02*
