G04 #@! TF.FileFunction,Paste,Top*
%FSLAX46Y46*%
G04 Gerber Fmt 4.6, Leading zero omitted, Abs format (unit mm)*
G04 Created by KiCad (PCBNEW 4.0.7) date Wednesday, October 18, 2017 'PMt' 08:17:54 PM*
%MOMM*%
%LPD*%
G01*
G04 APERTURE LIST*
%ADD10C,0.150000*%
%ADD11R,0.750000X0.800000*%
%ADD12R,0.797560X0.797560*%
%ADD13R,1.200000X0.900000*%
%ADD14R,1.900000X1.500000*%
%ADD15R,1.350000X0.400000*%
%ADD16R,0.995680X3.497580*%
%ADD17R,0.998220X3.497580*%
%ADD18R,1.498600X3.398520*%
%ADD19R,1.498600X3.395980*%
%ADD20R,0.900000X0.500000*%
%ADD21R,0.500000X0.900000*%
%ADD22R,0.650000X1.220000*%
%ADD23R,1.050000X1.400000*%
G04 APERTURE END LIST*
D10*
D11*
X126873000Y-99187000D03*
X126873000Y-97687000D03*
D12*
X135001000Y-96253300D03*
X135001000Y-94754700D03*
D13*
X134620000Y-108330000D03*
X134620000Y-105030000D03*
D12*
X133350000Y-96253300D03*
X133350000Y-94754700D03*
D14*
X134355663Y-82951407D03*
D15*
X131655663Y-84601407D03*
X131655663Y-85251407D03*
X131655663Y-82651407D03*
X131655663Y-83301407D03*
X131655663Y-83951407D03*
D14*
X134355663Y-84951407D03*
D16*
X127096520Y-106392980D03*
D17*
X129098040Y-106392980D03*
D18*
X124752100Y-112141000D03*
D19*
X131445000Y-112141000D03*
D20*
X124968000Y-99302000D03*
X124968000Y-97802000D03*
D21*
X128536000Y-83693000D03*
X130036000Y-83693000D03*
X128536000Y-82042000D03*
X130036000Y-82042000D03*
D20*
X129794000Y-86602000D03*
X129794000Y-85102000D03*
X135001000Y-99060000D03*
X135001000Y-97560000D03*
X131699000Y-96266000D03*
X131699000Y-94766000D03*
D22*
X124958953Y-103447831D03*
X125908953Y-103447831D03*
X126858953Y-103447831D03*
X126858953Y-100827831D03*
X124958953Y-100827831D03*
D11*
X131445000Y-90666000D03*
X131445000Y-89166000D03*
D23*
X125947000Y-94002000D03*
X125947000Y-90402000D03*
X124497000Y-94002000D03*
X124497000Y-90402000D03*
X133641000Y-89386000D03*
X133641000Y-92986000D03*
X135091000Y-89386000D03*
X135091000Y-92986000D03*
M02*
