G04 #@! TF.FileFunction,Copper,L1,Top,Signal*
%FSLAX46Y46*%
G04 Gerber Fmt 4.6, Leading zero omitted, Abs format (unit mm)*
G04 Created by KiCad (PCBNEW 4.0.7) date Wednesday, October 18, 2017 'PMt' 08:17:54 PM*
%MOMM*%
%LPD*%
G01*
G04 APERTURE LIST*
%ADD10C,0.150000*%
%ADD11C,4.400000*%
%ADD12R,0.750000X0.800000*%
%ADD13R,0.797560X0.797560*%
%ADD14R,1.200000X0.900000*%
%ADD15R,1.900000X1.500000*%
%ADD16C,1.450000*%
%ADD17R,1.350000X0.400000*%
%ADD18C,1.899920*%
%ADD19R,1.900000X1.200000*%
%ADD20R,0.995680X3.497580*%
%ADD21R,0.998220X3.497580*%
%ADD22R,1.498600X3.398520*%
%ADD23R,1.498600X3.395980*%
%ADD24R,0.900000X0.500000*%
%ADD25R,0.500000X0.900000*%
%ADD26R,0.650000X1.220000*%
%ADD27R,1.050000X1.400000*%
%ADD28C,0.609600*%
%ADD29C,0.127000*%
%ADD30C,0.254000*%
G04 APERTURE END LIST*
D10*
D11*
X133350000Y-116586000D03*
D12*
X126873000Y-99187000D03*
X126873000Y-97687000D03*
D13*
X135001000Y-96253300D03*
X135001000Y-94754700D03*
D14*
X134620000Y-108330000D03*
X134620000Y-105030000D03*
D13*
X133350000Y-96253300D03*
X133350000Y-94754700D03*
D15*
X134355663Y-82951407D03*
D16*
X131655663Y-86451407D03*
D17*
X131655663Y-84601407D03*
X131655663Y-85251407D03*
X131655663Y-82651407D03*
X131655663Y-83301407D03*
X131655663Y-83951407D03*
D16*
X131655663Y-81451407D03*
D15*
X134355663Y-84951407D03*
D18*
X134355663Y-87451407D03*
X134355663Y-80451407D03*
D19*
X134355663Y-81051407D03*
X134355663Y-86851407D03*
D20*
X127096520Y-106392980D03*
D21*
X129098040Y-106392980D03*
D22*
X124752100Y-112141000D03*
D23*
X131445000Y-112141000D03*
D24*
X124968000Y-99302000D03*
X124968000Y-97802000D03*
D25*
X128536000Y-83693000D03*
X130036000Y-83693000D03*
X128536000Y-82042000D03*
X130036000Y-82042000D03*
D24*
X129794000Y-86602000D03*
X129794000Y-85102000D03*
X135001000Y-99060000D03*
X135001000Y-97560000D03*
X131699000Y-96266000D03*
X131699000Y-94766000D03*
D26*
X124958953Y-103447831D03*
X125908953Y-103447831D03*
X126858953Y-103447831D03*
X126858953Y-100827831D03*
X124958953Y-100827831D03*
D12*
X131445000Y-90666000D03*
X131445000Y-89166000D03*
D27*
X125947000Y-94002000D03*
X125947000Y-90402000D03*
X124497000Y-94002000D03*
X124497000Y-90402000D03*
X133641000Y-89386000D03*
X133641000Y-92986000D03*
X135091000Y-89386000D03*
X135091000Y-92986000D03*
D11*
X133223000Y-76327000D03*
D28*
X127263367Y-88884834D03*
X127263367Y-87595849D03*
X128528915Y-87619285D03*
X128528915Y-88849680D03*
X129862490Y-85794952D03*
X135001000Y-99060000D03*
X126873000Y-99187000D03*
X126858953Y-100827831D03*
X124523511Y-94419812D03*
X124523511Y-90402000D03*
X135091000Y-89386000D03*
X135091000Y-92986000D03*
X133350000Y-94754700D03*
X130278000Y-91694000D03*
X133985000Y-105029000D03*
X126873000Y-108839000D03*
X124968000Y-97802000D03*
X126873000Y-97687000D03*
X128844000Y-104466000D03*
X128143000Y-109728000D03*
X128905000Y-109220000D03*
X128905000Y-109752000D03*
X132001000Y-107569000D03*
X125448985Y-104757519D03*
X132984063Y-84514607D03*
X132984063Y-82990607D03*
X135128000Y-107569000D03*
X128294000Y-95250000D03*
X126492000Y-106299000D03*
X128778000Y-91694000D03*
X127381000Y-91694000D03*
X125095000Y-82677000D03*
X126858953Y-103447831D03*
X125448985Y-106657519D03*
X126619000Y-92748100D03*
X130644528Y-87013368D03*
X125296101Y-88224195D03*
X124311738Y-86351516D03*
X125881000Y-91694000D03*
X124492261Y-88281444D03*
X124611997Y-87411050D03*
X131374011Y-92969426D03*
X124333000Y-96647000D03*
X125984000Y-96901000D03*
X132106450Y-90682583D03*
X132606626Y-89281000D03*
D29*
X129794000Y-85863442D02*
X129862490Y-85794952D01*
X129794000Y-86602000D02*
X129794000Y-85863442D01*
X135001000Y-99060000D02*
X127000000Y-99060000D01*
X127000000Y-99060000D02*
X126873000Y-99187000D01*
X131655663Y-85251407D02*
X131180663Y-85251407D01*
X131180663Y-85251407D02*
X129830070Y-86602000D01*
X129830070Y-86602000D02*
X129794000Y-86602000D01*
X126858953Y-100827831D02*
X126858953Y-99201047D01*
X126858953Y-99201047D02*
X126873000Y-99187000D01*
X124497000Y-94393301D02*
X124523511Y-94419812D01*
X124497000Y-94002000D02*
X124497000Y-94393301D01*
X124497000Y-90402000D02*
X124523511Y-90402000D01*
X131655663Y-82651407D02*
X132644863Y-82651407D01*
X132644863Y-82651407D02*
X132984063Y-82990607D01*
X134355663Y-87823663D02*
X134355663Y-87451407D01*
D30*
X134620000Y-105030000D02*
X133986000Y-105030000D01*
X133986000Y-105030000D02*
X133985000Y-105029000D01*
X125908953Y-103447831D02*
X125908953Y-104297551D01*
X125908953Y-104297551D02*
X125448985Y-104757519D01*
X129098040Y-106392980D02*
X129098040Y-104720040D01*
X129098040Y-104720040D02*
X128844000Y-104466000D01*
X126873000Y-97687000D02*
X125083000Y-97687000D01*
X125083000Y-97687000D02*
X124968000Y-97802000D01*
X134355663Y-84951407D02*
X133420863Y-84951407D01*
X133420863Y-84951407D02*
X132984063Y-84514607D01*
X134355663Y-82951407D02*
X133023263Y-82951407D01*
X133023263Y-82951407D02*
X132984063Y-82990607D01*
X131655663Y-82651407D02*
X131655663Y-81451407D01*
X134355663Y-84951407D02*
X134355663Y-87451407D01*
X134355663Y-82951407D02*
X134355663Y-84951407D01*
X134355663Y-81051407D02*
X134355663Y-82951407D01*
X134355663Y-81051407D02*
X134355663Y-80451407D01*
X134620000Y-108330000D02*
X134620000Y-108077000D01*
X134620000Y-108077000D02*
X135128000Y-107569000D01*
D29*
X127096520Y-106392980D02*
X126585980Y-106392980D01*
X126585980Y-106392980D02*
X126492000Y-106299000D01*
D30*
X126858953Y-105290537D02*
X127096520Y-105528104D01*
X127096520Y-105528104D02*
X127096520Y-106392980D01*
D29*
X135001000Y-97560000D02*
X135001000Y-96253300D01*
X124958953Y-103447831D02*
X124958953Y-102105733D01*
X124958953Y-102105733D02*
X126307499Y-100757187D01*
X126664597Y-98277501D02*
X127400401Y-98277501D01*
X126307499Y-100757187D02*
X126307499Y-98634599D01*
X126307499Y-98634599D02*
X126664597Y-98277501D01*
X127400401Y-98277501D02*
X127438501Y-98239401D01*
X127438501Y-98239401D02*
X127438501Y-96837983D01*
X127438501Y-96837983D02*
X128932503Y-95343981D01*
X128932503Y-95343981D02*
X129739205Y-95343981D01*
X124958953Y-103447831D02*
X124958953Y-103119929D01*
X127143324Y-92748100D02*
X129739205Y-95343981D01*
X126619000Y-92748100D02*
X127143324Y-92748100D01*
X129739205Y-95343981D02*
X133885939Y-95343981D01*
X133885939Y-95343981D02*
X134475220Y-94754700D01*
X134475220Y-94754700D02*
X135001000Y-94754700D01*
X131699000Y-96266000D02*
X133337300Y-96266000D01*
X133337300Y-96266000D02*
X133350000Y-96253300D01*
X130036000Y-83693000D02*
X130036000Y-83893000D01*
X130036000Y-83893000D02*
X130744407Y-84601407D01*
X130744407Y-84601407D02*
X131655663Y-84601407D01*
X129794000Y-85102000D02*
X130371000Y-85102000D01*
X130371000Y-85102000D02*
X130871593Y-84601407D01*
X130871593Y-84601407D02*
X131655663Y-84601407D01*
X130036000Y-82042000D02*
X130413000Y-82042000D01*
X130413000Y-82042000D02*
X130486526Y-82115526D01*
X130486526Y-82115526D02*
X130486526Y-83584270D01*
X130486526Y-83584270D02*
X130853663Y-83951407D01*
X130853663Y-83951407D02*
X131655663Y-83951407D01*
X130949327Y-87318167D02*
X130644528Y-87013368D01*
X131000140Y-87368980D02*
X130949327Y-87318167D01*
X133641000Y-89211000D02*
X131798980Y-87368980D01*
X133641000Y-89386000D02*
X133641000Y-89211000D01*
X131798980Y-87368980D02*
X131000140Y-87368980D01*
X133641000Y-92986000D02*
X133641000Y-89386000D01*
X125947000Y-88875094D02*
X125600900Y-88528994D01*
X124725129Y-88795167D02*
X124991302Y-88528994D01*
X123996959Y-88537611D02*
X124254515Y-88795167D01*
X124311738Y-86351516D02*
X123996959Y-86666295D01*
X124991302Y-88528994D02*
X125296101Y-88224195D01*
X125600900Y-88528994D02*
X125296101Y-88224195D01*
X124254515Y-88795167D02*
X124725129Y-88795167D01*
X125947000Y-90402000D02*
X125947000Y-88875094D01*
X123996959Y-86666295D02*
X123996959Y-88537611D01*
X125947000Y-94002000D02*
X125947000Y-91760000D01*
X125947000Y-91760000D02*
X125881000Y-91694000D01*
X125881000Y-91694000D02*
X125881000Y-91117000D01*
X125881000Y-91117000D02*
X125947000Y-91051000D01*
X125947000Y-91051000D02*
X125947000Y-90402000D01*
D30*
X124968000Y-99302000D02*
X124968000Y-100818784D01*
X124968000Y-100818784D02*
X124958953Y-100827831D01*
D29*
X128536000Y-84270000D02*
X124524556Y-88281444D01*
X128536000Y-83693000D02*
X128536000Y-84270000D01*
X124524556Y-88281444D02*
X124492261Y-88281444D01*
X124916796Y-86323225D02*
X124916796Y-87106251D01*
X128536000Y-82704021D02*
X124916796Y-86323225D01*
X124916796Y-87106251D02*
X124611997Y-87411050D01*
X128536000Y-82042000D02*
X128536000Y-82704021D01*
X128536000Y-82159380D02*
X128536000Y-82042000D01*
X131699000Y-93294415D02*
X131374011Y-92969426D01*
X131699000Y-94766000D02*
X131699000Y-93294415D01*
X124587000Y-96901000D02*
X125984000Y-96901000D01*
X124333000Y-96647000D02*
X124587000Y-96901000D01*
X132089867Y-90666000D02*
X132106450Y-90682583D01*
X131445000Y-90666000D02*
X132089867Y-90666000D01*
X131445000Y-89166000D02*
X132491626Y-89166000D01*
X132491626Y-89166000D02*
X132606626Y-89281000D01*
D30*
G36*
X127508000Y-104666640D02*
X127508000Y-107950000D01*
X126661333Y-107950000D01*
X125222000Y-106870500D01*
X125222000Y-106594575D01*
X126594413Y-104723103D01*
X126615564Y-104677342D01*
X126619000Y-104648000D01*
X126619000Y-103505000D01*
X127159508Y-103505000D01*
X127508000Y-104666640D01*
X127508000Y-104666640D01*
G37*
X127508000Y-104666640D02*
X127508000Y-107950000D01*
X126661333Y-107950000D01*
X125222000Y-106870500D01*
X125222000Y-106594575D01*
X126594413Y-104723103D01*
X126615564Y-104677342D01*
X126619000Y-104648000D01*
X126619000Y-103505000D01*
X127159508Y-103505000D01*
X127508000Y-104666640D01*
M02*
